<svg width="291" height="291" viewBox="0 0 291 291" fill="none" xmlns="http://www.w3.org/2000/svg">
<circle cx="145.5" cy="145.5" r="145.5" fill="black"/>
<path d="M106.087 176.736L114.766 110.739H169.966L173.421 137.011L106.087 176.736ZM194.856 240.906H187.03C187.031 240.864 187.036 240.823 187.036 240.782C187.036 240.407 186.997 240.04 186.922 239.687L177.155 165.411L102.114 209.683C101.989 209.757 101.857 209.813 101.729 209.876L97.7546 240.099C97.7194 240.369 97.7123 240.639 97.7194 240.906H89.8757C86.63 240.906 84 243.389 84 246.453C84 249.517 86.63 252 89.8757 252H194.855C198.101 252 200.731 249.517 200.731 246.453C200.731 243.389 198.101 240.906 194.856 240.906ZM171.353 90.0311H167.244L166.022 81.1561H146.544C145.968 81.1561 145.418 80.861 144.918 80.6613C144.418 80.4616 143.967 80.0808 143.59 79.7235C143.023 79.1881 142.488 78.4537 142.321 77.683C142.265 77.4264 142.105 77.1372 142.105 76.8651V76.8421V72.5282C142.105 72.256 142.265 71.9897 142.321 71.7331C142.599 70.4492 143.603 69.3923 144.853 68.8939C145.353 68.6942 145.968 68.584 146.544 68.584H164.408L163.469 61.4855C165.57 60.6401 167.043 58.6736 167.043 56.3809C167.043 53.4662 164.661 51.0818 161.635 50.8562C159.047 43.8361 151.951 39 143.767 39H140.965C132.789 39 125.7 43.8265 123.106 50.8333H122.78C119.535 50.8333 116.905 53.3161 116.905 56.3801C116.905 58.9369 118.739 61.0831 121.231 61.7258L117.489 90.0311H112.596C109.35 90.0311 106.72 92.5138 106.72 95.5779C106.72 97.1873 107.45 98.6324 108.611 99.6456H175.338C176.498 98.6324 177.229 97.1873 177.229 95.5779C177.229 92.5138 174.598 90.0311 171.353 90.0311ZM249.03 58.5627C247.699 57.5073 246.006 57.0643 244.295 57.3512L172.253 69.4079C169.448 69.8775 167.419 72.1791 167.419 74.8697C167.419 77.5603 169.472 79.8618 172.277 80.3315L244.357 92.3881C244.698 92.4451 245.043 92.4732 245.384 92.4732C246.753 92.4732 247.963 92.0213 249.029 91.1767C250.361 90.1228 251 88.5667 251 86.9263V62.813C251.001 61.1726 250.363 59.6166 249.03 58.5627Z" fill="white"/>
</svg>
